<?xml version="1.0" encoding="UTF-8"?>
<svg width="272px" height="37px" viewBox="0 0 272 37" version="1.1" xmlns="http://www.w3.org/2000/svg" xmlns:xlink="http://www.w3.org/1999/xlink">
    <title>coss.ui svelte</title>
    <g id="Page-1" stroke="none" stroke-width="1" fill="none" fill-rule="evenodd">
        <g id="coss.ui-svelte" transform="translate(0, -12)" fill-rule="nonzero">
            <path d="M13.824,48.624 C11.488,48.624 9.336,48.04 7.368,46.872 C5.4,45.704 3.84,44.112 2.688,42.096 C1.536,40.08 0.96,37.888 0.96,35.52 C0.96,33.12 1.536,30.92 2.688,28.92 C3.84,26.92 5.44,25.336 7.488,24.168 C9.536,23 11.824,22.416 14.352,22.416 C16.56,22.416 18.544,22.824 20.304,23.64 C22.064,24.456 23.472,25.6 24.528,27.072 L19.536,31.152 C18.96,30.288 18.208,29.6 17.28,29.088 C16.352,28.576 15.344,28.32 14.256,28.32 C12.912,28.32 11.728,28.648 10.704,29.304 C9.68,29.96 8.88,30.832 8.304,31.92 C7.728,33.008 7.44,34.208 7.44,35.52 C7.44,36.8 7.736,37.992 8.328,39.096 C8.92,40.2 9.744,41.08 10.8,41.736 C11.856,42.392 13.056,42.72 14.4,42.72 C15.584,42.72 16.608,42.464 17.472,41.952 C18.336,41.44 19.12,40.704 19.824,39.744 L24.528,43.824 C22.032,47.024 18.464,48.624 13.824,48.624 Z" id="Path" fill="#000000"></path>
            <path d="M37.824,48.624 C35.296,48.624 33.024,48.04 31.008,46.872 C28.992,45.704 27.408,44.12 26.256,42.12 C25.104,40.12 24.528,37.936 24.528,35.568 C24.528,33.2 25.104,31.008 26.256,28.992 C27.408,26.976 28.992,25.384 31.008,24.216 C33.024,23.048 35.296,22.464 37.824,22.464 C40.352,22.464 42.624,23.048 44.64,24.216 C46.656,25.384 48.24,26.976 49.392,28.992 C50.544,31.008 51.12,33.2 51.12,35.568 C51.12,37.936 50.544,40.12 49.392,42.12 C48.24,44.12 46.656,45.704 44.64,46.872 C42.624,48.04 40.352,48.624 37.824,48.624 Z M31.008,35.568 C31.008,36.88 31.288,38.08 31.848,39.168 C32.408,40.256 33.208,41.12 34.248,41.76 C35.288,42.4 36.48,42.72 37.824,42.72 C39.168,42.72 40.36,42.4 41.4,41.76 C42.44,41.12 43.24,40.256 43.8,39.168 C44.36,38.08 44.64,36.88 44.64,35.568 C44.64,34.256 44.352,33.056 43.776,31.968 C43.2,30.88 42.4,30.008 41.376,29.352 C40.352,28.696 39.168,28.368 37.824,28.368 C36.48,28.368 35.296,28.696 34.272,29.352 C33.248,30.008 32.448,30.88 31.872,31.968 C31.296,33.056 31.008,34.256 31.008,35.568 Z" id="Shape" fill="#000000"></path>
            <path d="M62.016,48.624 C57.824,48.624 54.368,47.168 51.648,44.256 L56.016,40.272 C57.84,42.32 59.792,43.344 61.872,43.344 C62.96,43.344 63.808,43.104 64.416,42.624 C65.024,42.144 65.328,41.52 65.328,40.752 C65.328,40.048 65.032,39.496 64.44,39.096 C63.848,38.696 62.624,38.272 60.768,37.824 C57.728,37.088 55.688,36.08 54.648,34.8 C53.608,33.52 53.088,31.936 53.088,30.048 C53.088,27.808 53.92,25.976 55.584,24.552 C57.248,23.128 59.52,22.416 62.4,22.416 C64.48,22.416 66.232,22.736 67.656,23.376 C69.08,24.016 70.416,25.136 71.664,26.736 L66.96,30.336 C65.84,28.544 64.368,27.648 62.544,27.648 C61.616,27.648 60.864,27.832 60.288,28.2 C59.712,28.568 59.424,29.12 59.424,29.856 C59.424,30.368 59.64,30.808 60.072,31.176 C60.504,31.544 61.408,31.904 62.784,32.256 C66.208,33.152 68.552,34.256 69.816,35.568 C71.08,36.88 71.712,38.544 71.712,40.56 C71.712,42.064 71.288,43.432 70.44,44.664 C69.592,45.896 68.432,46.864 66.96,47.568 C65.488,48.272 63.84,48.624 62.016,48.624 Z" id="Path" fill="#000000"></path>
            <path d="M82.8,48.624 C78.608,48.624 75.152,47.168 72.432,44.256 L76.8,40.272 C78.624,42.32 80.576,43.344 82.656,43.344 C83.744,43.344 84.592,43.104 85.2,42.624 C85.808,42.144 86.112,41.52 86.112,40.752 C86.112,40.048 85.816,39.496 85.224,39.096 C84.632,38.696 83.408,38.272 81.552,37.824 C78.512,37.088 76.472,36.08 75.432,34.8 C74.392,33.52 73.872,31.936 73.872,30.048 C73.872,27.808 74.704,25.976 76.368,24.552 C78.032,23.128 80.304,22.416 83.184,22.416 C85.264,22.416 87.016,22.736 88.44,23.376 C89.864,24.016 91.2,25.136 92.448,26.736 L87.744,30.336 C86.624,28.544 85.152,27.648 83.328,27.648 C82.4,27.648 81.648,27.832 81.072,28.2 C80.496,28.568 80.208,29.12 80.208,29.856 C80.208,30.368 80.424,30.808 80.856,31.176 C81.288,31.544 82.192,31.904 83.568,32.256 C86.992,33.152 89.336,34.256 90.6,35.568 C91.864,36.88 92.496,38.544 92.496,40.56 C92.496,42.064 92.072,43.432 91.224,44.664 C90.376,45.896 89.216,46.864 87.744,47.568 C86.272,48.272 84.624,48.624 82.8,48.624 Z" id="Path" fill="#000000"></path>
            <path d="M97.92,48.624 C96.704,48.624 95.68,48.208 94.848,47.376 C94.016,46.544 93.6,45.552 93.6,44.4 C93.6,43.248 94.016,42.264 94.848,41.448 C95.68,40.632 96.704,40.224 97.92,40.224 C99.136,40.224 100.152,40.632 100.968,41.448 C101.784,42.264 102.192,43.248 102.192,44.4 C102.192,45.584 101.784,46.584 100.968,47.4 C100.152,48.216 99.136,48.624 97.92,48.624 Z" id="Path" fill="#828282"></path>
            <path d="M113.712,48.576 C111.92,48.576 110.304,48.152 108.864,47.304 C107.424,46.456 106.288,45.256 105.456,43.704 C104.624,42.152 104.208,40.352 104.208,38.304 L104.208,23.04 L110.688,23.04 L110.688,36.72 C110.688,40.848 112.352,42.912 115.68,42.912 C117.152,42.912 118.384,42.392 119.376,41.352 C120.368,40.312 120.864,38.768 120.864,36.72 L120.864,23.04 L127.344,23.04 L127.344,48 L121.056,48 L121.056,44.256 C120.448,45.728 119.552,46.816 118.368,47.52 C117.184,48.224 115.632,48.576 113.712,48.576 Z" id="Path" fill="#828282"></path>
            <path d="M131.184,23.04 L137.664,23.04 L137.664,48 L131.184,48 L131.184,23.04 Z M130.512,17.136 C130.512,16.08 130.888,15.184 131.64,14.448 C132.392,13.712 133.312,13.344 134.4,13.344 C135.52,13.344 136.448,13.712 137.184,14.448 C137.92,15.184 138.288,16.08 138.288,17.136 C138.288,18.224 137.92,19.136 137.184,19.872 C136.448,20.608 135.52,20.976 134.4,20.976 C133.312,20.976 132.392,20.6 131.64,19.848 C130.888,19.096 130.512,18.192 130.512,17.136 Z" id="Shape" fill="#828282"></path>
            <path d="M157.92,48.624 C153.728,48.624 150.272,47.168 147.552,44.256 L151.92,40.272 C153.744,42.32 155.696,43.344 157.776,43.344 C158.864,43.344 159.712,43.104 160.32,42.624 C160.928,42.144 161.232,41.52 161.232,40.752 C161.232,40.048 160.936,39.496 160.344,39.096 C159.752,38.696 158.528,38.272 156.672,37.824 C153.632,37.088 151.592,36.08 150.552,34.8 C149.512,33.52 148.992,31.936 148.992,30.048 C148.992,27.808 149.824,25.976 151.488,24.552 C153.152,23.128 155.424,22.416 158.304,22.416 C160.384,22.416 162.136,22.736 163.56,23.376 C164.984,24.016 166.32,25.136 167.568,26.736 L162.864,30.336 C161.744,28.544 160.272,27.648 158.448,27.648 C157.52,27.648 156.768,27.832 156.192,28.2 C155.616,28.568 155.328,29.12 155.328,29.856 C155.328,30.368 155.544,30.808 155.976,31.176 C156.408,31.544 157.312,31.904 158.688,32.256 C162.112,33.152 164.456,34.256 165.72,35.568 C166.984,36.88 167.616,38.544 167.616,40.56 C167.616,42.064 167.192,43.432 166.344,44.664 C165.496,45.896 164.336,46.864 162.864,47.568 C161.392,48.272 159.744,48.624 157.92,48.624 Z" id="Path" fill="#FF8C8D"></path>
            <path d="M167.088,23.04 L174.768,23.04 L179.76,37.296 C180.208,38.512 180.56,39.84 180.816,41.28 C181.072,39.84 181.424,38.512 181.872,37.296 L186.864,23.04 L194.4,23.04 L184.032,48 L177.504,48 L167.088,23.04 Z" id="Path" fill="#FF8C8D"></path>
            <path d="M205.968,48.624 C203.44,48.624 201.2,48.04 199.248,46.872 C197.296,45.704 195.776,44.128 194.688,42.144 C193.6,40.16 193.056,37.968 193.056,35.568 C193.056,33.2 193.616,31.008 194.736,28.992 C195.856,26.976 197.4,25.376 199.368,24.192 C201.336,23.008 203.536,22.416 205.968,22.416 C208.4,22.416 210.584,23.008 212.52,24.192 C214.456,25.376 215.96,26.968 217.032,28.968 C218.104,30.968 218.64,33.168 218.64,35.568 C218.64,36.368 218.576,37.136 218.448,37.872 L199.776,37.872 C200.16,39.376 200.888,40.584 201.96,41.496 C203.032,42.408 204.368,42.864 205.968,42.864 C207.312,42.864 208.512,42.552 209.568,41.928 C210.624,41.304 211.456,40.496 212.064,39.504 L217.104,43.296 C216.08,44.896 214.576,46.184 212.592,47.16 C210.608,48.136 208.4,48.624 205.968,48.624 Z M212.112,33.024 C211.728,31.584 210.976,30.384 209.856,29.424 C208.736,28.464 207.408,27.984 205.872,27.984 C204.368,27.984 203.064,28.448 201.96,29.376 C200.856,30.304 200.128,31.52 199.776,33.024 L212.112,33.024 Z" id="Shape" fill="#FF8C8D"></path>
            <polygon id="Path" fill="#FF8C8D" points="221.472 12.96 227.952 12.96 227.952 48 221.472 48"></polygon>
            <path d="M241.248,48 C238.72,48 236.816,47.376 235.536,46.128 C234.256,44.88 233.616,42.928 233.616,40.272 L233.616,28.56 L230.112,28.56 L230.112,23.04 L233.616,23.04 L233.616,18 L240.096,17.328 L240.096,23.04 L245.376,23.04 L245.376,28.56 L240.096,28.56 L240.096,39.936 C240.096,41.472 240.768,42.24 242.112,42.24 L244.8,42.24 L244.8,48 L241.248,48 Z" id="Path" fill="#FF8C8D"></path>
            <path d="M258.816,48.624 C256.288,48.624 254.048,48.04 252.096,46.872 C250.144,45.704 248.624,44.128 247.536,42.144 C246.448,40.16 245.904,37.968 245.904,35.568 C245.904,33.2 246.464,31.008 247.584,28.992 C248.704,26.976 250.248,25.376 252.216,24.192 C254.184,23.008 256.384,22.416 258.816,22.416 C261.248,22.416 263.432,23.008 265.368,24.192 C267.304,25.376 268.808,26.968 269.88,28.968 C270.952,30.968 271.488,33.168 271.488,35.568 C271.488,36.368 271.424,37.136 271.296,37.872 L252.624,37.872 C253.008,39.376 253.736,40.584 254.808,41.496 C255.88,42.408 257.216,42.864 258.816,42.864 C260.16,42.864 261.36,42.552 262.416,41.928 C263.472,41.304 264.304,40.496 264.912,39.504 L269.952,43.296 C268.928,44.896 267.424,46.184 265.44,47.16 C263.456,48.136 261.248,48.624 258.816,48.624 Z M264.96,33.024 C264.576,31.584 263.824,30.384 262.704,29.424 C261.584,28.464 260.256,27.984 258.72,27.984 C257.216,27.984 255.912,28.448 254.808,29.376 C253.704,30.304 252.976,31.52 252.624,33.024 L264.96,33.024 Z" id="Shape" fill="#FF8C8D"></path>
        </g>
    </g>
</svg>