<svg height="159" viewBox="0 0 159 159" width="159" xmlns="http://www.w3.org/2000/svg"><g fill="none" fill-rule="evenodd"><rect fill="#d8d8d8" height="159" rx="23" width="159"/><g fill-rule="nonzero"><g transform="translate(10.668 36.344)"><g fill="#000"><path d="m12.864 35.28c-2.336 0-4.488-.584-6.456-1.752s-3.528-2.76-4.68-4.776-1.728-4.208-1.728-6.576c0-2.4.576-4.6 1.728-6.6s2.752-3.584 4.8-4.752 4.336-1.752 6.864-1.752c2.208 0 4.192.408 5.952 1.224s3.168 1.96 4.224 3.432l-4.992 4.08c-.576-.864-1.328-1.552-2.256-2.064s-1.936-.768-3.024-.768c-1.344 0-2.528.328-3.552.984s-1.824 1.528-2.4 2.616-.864 2.288-.864 3.6c0 1.28.296 2.472.888 3.576s1.416 1.984 2.472 2.64 2.256.984 3.6.984c1.184 0 2.208-.256 3.072-.768s1.648-1.248 2.352-2.208l4.704 4.08c-2.496 3.2-6.064 4.8-10.704 4.8z"/><path d="m36.864 35.28c-2.528 0-4.8-.584-6.816-1.752s-3.6-2.752-4.752-4.752-1.728-4.184-1.728-6.552.576-4.56 1.728-6.576 2.736-3.608 4.752-4.776 4.288-1.752 6.816-1.752 4.8.584 6.816 1.752 3.6 2.76 4.752 4.776 1.728 4.208 1.728 6.576-.576 4.552-1.728 6.552-2.736 3.584-4.752 4.752-4.288 1.752-6.816 1.752zm-6.816-13.056c0 1.312.28 2.512.84 3.6s1.36 1.952 2.4 2.592 2.232.96 3.576.96 2.536-.32 3.576-.96 1.84-1.504 2.4-2.592.84-2.288.84-3.6-.288-2.512-.864-3.6-1.376-1.96-2.4-2.616-2.208-.984-3.552-.984-2.528.328-3.552.984-1.824 1.528-2.4 2.616-.864 2.288-.864 3.6z"/><path d="m61.056 35.28c-4.192 0-7.648-1.456-10.368-4.368l4.368-3.984c1.824 2.048 3.776 3.072 5.856 3.072 1.088 0 1.936-.24 2.544-.72s.912-1.104.912-1.872c0-.704-.296-1.256-.888-1.656s-1.816-.824-3.672-1.272c-3.04-.736-5.08-1.744-6.12-3.024s-1.56-2.864-1.56-4.752c0-2.24.832-4.072 2.496-5.496s3.936-2.136 6.816-2.136c2.08 0 3.832.32 5.256.96s2.76 1.76 4.008 3.36l-4.704 3.6c-1.12-1.792-2.592-2.688-4.416-2.688-.928 0-1.68.184-2.256.552s-.864.92-.864 1.656c0 .512.216.952.648 1.32s1.336.728 2.712 1.08c3.424.896 5.768 2 7.032 3.312s1.896 2.976 1.896 4.992c0 1.504-.424 2.872-1.272 4.104s-2.008 2.2-3.48 2.904-3.12 1.056-4.944 1.056z"/><path d="m81.84 35.28c-4.192 0-7.648-1.456-10.368-4.368l4.368-3.984c1.824 2.048 3.776 3.072 5.856 3.072 1.088 0 1.936-.24 2.544-.72s.912-1.104.912-1.872c0-.704-.296-1.256-.888-1.656s-1.816-.824-3.672-1.272c-3.04-.736-5.08-1.744-6.12-3.024s-1.56-2.864-1.56-4.752c0-2.24.832-4.072 2.496-5.496s3.936-2.136 6.816-2.136c2.08 0 3.832.32 5.256.96s2.76 1.76 4.008 3.36l-4.704 3.6c-1.12-1.792-2.592-2.688-4.416-2.688-.928 0-1.68.184-2.256.552s-.864.92-.864 1.656c0 .512.216.952.648 1.32s1.336.728 2.712 1.08c3.424.896 5.768 2 7.032 3.312s1.896 2.976 1.896 4.992c0 1.504-.424 2.872-1.272 4.104s-2.008 2.2-3.48 2.904-3.12 1.056-4.944 1.056z"/></g><path d="m96.96 35.28c-1.216 0-2.24-.416-3.072-1.248s-1.248-1.824-1.248-2.976.416-2.136 1.248-2.952 1.856-1.224 3.072-1.224 2.232.408 3.048 1.224 1.224 1.8 1.224 2.952c0 1.184-.408 2.184-1.224 3s-1.832 1.224-3.048 1.224z" fill="#828282"/><path d="m112.752 35.232c-1.792 0-3.408-.424-4.848-1.272s-2.576-2.048-3.408-3.6-1.248-3.352-1.248-5.4v-15.264h6.48v13.68c0 4.128 1.664 6.192 4.992 6.192 1.472 0 2.704-.52 3.696-1.56s1.488-2.584 1.488-4.632v-13.68h6.48v24.96h-6.288v-3.744c-.608 1.472-1.504 2.56-2.688 3.264s-2.736 1.056-4.656 1.056z" fill="#828282"/><path d="m130.224 9.696h6.48v24.96h-6.48zm-.672-5.904c0-1.056.376-1.952 1.128-2.688s1.672-1.104 2.76-1.104c1.12 0 2.048.368 2.784 1.104s1.104 1.632 1.104 2.688c0 1.088-.368 2-1.104 2.736s-1.664 1.104-2.784 1.104c-1.088 0-2.008-.376-2.76-1.128s-1.128-1.656-1.128-2.712z" fill="#828282"/></g><g fill="#ff8c8d" transform="translate(17.124 78.1765)"><path d="m10.368 36.664c-4.192 0-7.648-1.4968255-10.368-4.4904764l4.368-4.0957093c1.824 2.1054248 3.776 3.1581372 5.856 3.1581372 1.088 0 1.936-.2467294 2.544-.7401884.608-.4934589.912-1.1349556.912-1.9244899 0-.7237398-.296-1.2912176-.888-1.7024334s-1.816-.8471045-3.672-1.3076662c-3.04-.756637-5.08-1.7929008-6.12-3.1087914-1.04-1.3158905-1.56-2.944305-1.56-4.8852436 0-2.3028084.832-4.1861767 2.496-5.650105 1.664-1.4639282 3.936-2.19589228 6.816-2.19589228 2.08 0 3.832.32897268 5.256.98691788 1.424.6579453 2.76 1.8093495 4.008 3.4542127l-4.704 3.7009421c-1.12-1.8422468-2.592-2.7633701-4.416-2.7633701-.928 0-1.68.1891592-2.256.5674778-.576.3783185-.864.9457963-.864 1.7024333 0 .5263563.216.9786936.648 1.3570122.432.3783185 1.336.7484127 2.712 1.1102826 3.424.9211234 5.768 2.056079 7.032 3.4048668s1.896 3.0594454 1.896 5.131973c0 1.5461714-.424 2.9525294-1.272 4.2190741-.848 1.2665446-2.008 2.2616868-3.48 2.9854266s-3.12 1.0856097-4.944 1.0856097z"/><path d="m19.536 10.362638h7.68l4.992 14.6557308c.448 1.250096.8 2.6153324 1.056 4.0957093.256-1.4803769.608-2.8456133 1.056-4.0957093l4.992-14.6557308h7.536l-10.368 25.6598654h-6.528z"/><path d="m58.416 36.664c-2.528 0-4.768-.6003751-6.72-1.8011252s-3.472-2.8209403-4.56-4.8605706c-1.088-2.0396304-1.632-4.2930929-1.632-6.7603876 0-2.4343975.56-4.6878601 1.68-6.7603877s2.664-3.7173907 4.632-4.9345895c1.968-1.2171987 4.168-1.82579808 6.6-1.82579808s4.616.60859938 6.552 1.82579808c1.936 1.2171988 3.44 2.8538376 4.512 4.9099166 1.072 2.0560789 1.608 4.3177658 1.608 6.7850606 0 .8224315-.064 1.6119659-.192 2.3686029h-18.672c.384 1.5461714 1.112 2.7880431 2.184 3.7256151s2.408 1.406358 4.008 1.406358c1.344 0 2.544-.3207483 3.6-.962245 1.056-.6414966 1.888-1.4721525 2.496-2.4919677l5.04 3.8983258c-1.024 1.6448631-2.528 2.968978-4.512 3.9723445s-4.192 1.5050498-6.624 1.5050498zm6.144-16.0374159c-.384-1.4803768-1.136-2.7140242-2.256-3.7009421s-2.448-1.4803769-3.984-1.4803769c-1.504 0-2.808.4770104-3.912 1.431031s-1.832 2.2041166-2.184 3.750288z"/><path d="m73.92 0h6.48v36.0225034h-6.48z"/><path d="m93.696 36.0225034c-2.528 0-4.432-.6414967-5.712-1.9244899-1.28-1.2829933-1.92-3.2897264-1.92-6.0201992v-12.0403984h-3.504v-5.6747779h3.504v-5.18131902l6.48-.69084253v5.87216155h5.28v5.6747779h-5.28v11.6949771c0 1.5790686.672 2.368603 2.016 2.368603h2.688v5.9215074z"/><path d="m111.264 36.664c-2.528 0-4.768-.6003751-6.72-1.8011252s-3.472-2.8209403-4.56-4.8605706c-1.088-2.0396304-1.632-4.2930929-1.632-6.7603876 0-2.4343975.56-4.6878601 1.68-6.7603877s2.664-3.7173907 4.632-4.9345895c1.968-1.2171987 4.168-1.82579808 6.6-1.82579808s4.616.60859938 6.552 1.82579808c1.936 1.2171988 3.44 2.8538376 4.512 4.9099166 1.072 2.0560789 1.608 4.3177658 1.608 6.7850606 0 .8224315-.064 1.6119659-.192 2.3686029h-18.672c.384 1.5461714 1.112 2.7880431 2.184 3.7256151s2.408 1.406358 4.008 1.406358c1.344 0 2.544-.3207483 3.6-.962245 1.056-.6414966 1.888-1.4721525 2.496-2.4919677l5.04 3.8983258c-1.024 1.6448631-2.528 2.968978-4.512 3.9723445s-4.192 1.5050498-6.624 1.5050498zm6.144-16.0374159c-.384-1.4803768-1.136-2.7140242-2.256-3.7009421s-2.448-1.4803769-3.984-1.4803769c-1.504 0-2.808.4770104-3.912 1.431031s-1.832 2.2041166-2.184 3.750288z"/></g></g></g></svg>